<svg width="389" height="601" viewBox="0 0 389 601" fill="none" xmlns="http://www.w3.org/2000/svg">
<g filter="url(#filter0_d_3158_12)">
<rect x="34.7778" width="319.453" height="524.565" rx="26" fill="#5243C2"/>
</g>
<mask id="mask0_3158_12" style="mask-type:luminance" maskUnits="userSpaceOnUse" x="34" y="0" width="321" height="525">
<rect x="34.7778" width="319.453" height="524.565" rx="26" fill="white"/>
</mask>
<g mask="url(#mask0_3158_12)">
<g opacity="0.1">
<path fill-rule="evenodd" clip-rule="evenodd" d="M708.297 6.92128H437.771L354.156 263.946L573.031 422.791L791.912 263.946L708.297 6.92128ZM349.855 265.337L435.12 3.27856H710.949L796.214 265.337L573.031 427.302L349.855 265.337Z" fill="white"/>
<path fill-rule="evenodd" clip-rule="evenodd" d="M714.581 -2.08589H431.481L343.977 266.785L573.031 432.966L802.091 266.785L714.581 -2.08589ZM340.998 268.799L340.009 268.075L429.037 -5.46411H717.038L806.06 268.075L573.031 437.137L340.998 268.799Z" fill="white"/>
<path fill-rule="evenodd" clip-rule="evenodd" d="M720.862 -11.1118H425.207L333.823 269.63L573.034 443.142L812.251 269.63L720.862 -11.1118ZM330.162 270.813L422.951 -14.207H723.124L815.906 270.813L573.034 446.973L330.162 270.813Z" fill="white"/>
<path fill-rule="evenodd" clip-rule="evenodd" d="M822.425 272.479L727.152 -20.1254H418.923L323.644 272.479L573.034 453.323L822.425 272.479ZM321.148 274.165L320.316 273.561L416.54 -21.9747L416.862 -22.9497H729.206L825.752 273.561L573.866 456.211L573.034 456.809L321.148 274.165Z" fill="white"/>
<path fill-rule="evenodd" clip-rule="evenodd" d="M733.437 -29.145H412.631L313.477 275.316L573.037 463.493L832.591 275.316L733.437 -29.145ZM310.47 276.297L410.778 -31.6926H735.29L835.598 276.297L573.037 466.644L310.47 276.297Z" fill="white"/>
<path fill-rule="evenodd" clip-rule="evenodd" d="M739.716 -38.1643H406.346L303.297 278.172L573.034 473.674L842.765 278.172L739.716 -38.1643ZM301.292 279.524L300.624 279.046L404.43 -39.6488L404.688 -40.4351H741.38L845.186 278.26L845.445 279.046L573.034 476.48L301.292 279.524Z" fill="white"/>
<path fill-rule="evenodd" clip-rule="evenodd" d="M746.008 -46.0911H400.061L293.13 282.101L573.031 484.936L852.939 282.101L746.008 -46.0911ZM291.364 283.29L290.778 282.862L398.377 -47.3931L398.611 -48.085H747.458L855.07 282.17L855.291 282.862L573.031 487.408L291.364 283.29Z" fill="white"/>
<path fill-rule="evenodd" clip-rule="evenodd" d="M863.093 284.949L752.289 -55.092H393.786L282.975 284.949L573.034 495.112L863.093 284.949ZM281.449 285.974L280.932 285.603L392.335 -56.2241L392.531 -56.8279H753.544L864.941 285.005L865.137 285.603L573.545 496.866L573.034 497.244L281.449 285.974Z" fill="white"/>
<path fill-rule="evenodd" clip-rule="evenodd" d="M758.575 -64.1179H387.494L272.795 287.793L573.031 505.293L873.267 287.793L758.575 -64.1179ZM271.508 288.661L271.085 288.347L386.277 -65.0611L386.434 -65.5706H759.628L874.825 287.85L874.983 288.347L573.031 507.079L271.508 288.661Z" fill="white"/>
<path fill-rule="evenodd" clip-rule="evenodd" d="M883.441 290.638L764.86 -73.1373H381.215L262.627 290.638L573.034 515.456L883.441 290.638ZM261.593 291.337L261.239 291.079L380.224 -73.9107L380.357 -74.3132H765.718L884.696 290.676L884.829 291.079L573.387 516.657L573.034 516.915L261.593 291.337Z" fill="white"/>
<path fill-rule="evenodd" clip-rule="evenodd" d="M893.603 294.152L771.14 -82.1606H374.928L252.459 294.152L573.028 526.723L893.603 294.152ZM251.664 294.687L251.393 294.498L374.272 -83.0562H771.796L894.675 294.498L573.293 527.648L573.028 527.843L251.664 294.687Z" fill="white"/>
<path fill-rule="evenodd" clip-rule="evenodd" d="M368.183 -91.7988L368.114 -91.5783L241.547 297.232L241.736 297.371L573.034 537.679L573.217 537.54L904.522 297.232L904.458 297.018L777.892 -91.7988H368.183ZM242.285 296.994L368.65 -91.1743H777.425L903.783 296.994L573.034 536.892L242.285 296.994Z" fill="white"/>
</g>
</g>
<defs>
<filter id="filter0_d_3158_12" x="0.777832" y="0" width="387.453" height="600.565" filterUnits="userSpaceOnUse" color-interpolation-filters="sRGB">
<feFlood flood-opacity="0" result="BackgroundImageFix"/>
<feColorMatrix in="SourceAlpha" type="matrix" values="0 0 0 0 0 0 0 0 0 0 0 0 0 0 0 0 0 0 127 0" result="hardAlpha"/>
<feOffset dy="42"/>
<feGaussianBlur stdDeviation="17"/>
<feColorMatrix type="matrix" values="0 0 0 0 0.321569 0 0 0 0 0.262745 0 0 0 0 0.760784 0 0 0 0.295755 0"/>
<feBlend mode="normal" in2="BackgroundImageFix" result="effect1_dropShadow_3158_12"/>
<feBlend mode="normal" in="SourceGraphic" in2="effect1_dropShadow_3158_12" result="shape"/>
</filter>
</defs>
</svg>
