<svg width="23" height="23" viewBox="0 0 23 23" fill="none" xmlns="http://www.w3.org/2000/svg">
<path opacity="0.1" d="M11.5386 0.796875C5.49647 0.796875 0.598389 5.6897 0.598389 11.7253C0.598389 17.7609 5.49647 22.6537 11.5386 22.6537C17.5806 22.6537 22.4787 17.7609 22.4787 11.7253C22.4717 5.69261 17.5777 0.803901 11.5386 0.796875Z" fill="white"/>
<path d="M17.8539 8.26454L11.6134 16.7241C11.4646 16.9213 11.2427 17.0506 10.9975 17.0827C10.7523 17.1149 10.5045 17.0474 10.3097 16.8953L5.85341 13.3362C5.46017 13.0219 5.3965 12.4486 5.71119 12.0558C6.02588 11.663 6.59977 11.5994 6.99301 11.9137L10.709 14.8835L16.3861 7.18718C16.5722 6.90813 16.8968 6.75385 17.231 6.7856C17.5652 6.81734 17.8549 7.02997 17.9851 7.33906C18.1152 7.64816 18.0648 8.0037 17.8539 8.26454Z" fill="white"/>
</svg>
